<svg xmlns="http://www.w3.org/2000/svg" viewBox="0 0 45 45">
  <g style="fill:#000;stroke:#000;stroke-width:1.5;stroke-linecap:round;stroke-linejoin:round">
    <path d="M22.5 11.63V6M20 8h5" style="fill:none;stroke:#fff;stroke-linejoin:miter"/>
    <path d="M22.5 25s4.5-7.5 3-10.5c0 0-1-2.5-3-2.5s-3 2.5-3 2.5c-1.5 3 3 10.5 3 10.5" style="stroke-linecap:butt;stroke-linejoin:miter"/>
    <path d="M11.5 37c5.5 3.5 15.5 3.5 21 0v-7s9-4.5 6-10.5c-4-6.5-13.5-3.5-16 4V17s-5.5-5.5-11 0c-7 7.5 4 10.5 4 10.5V37z" style="stroke-linecap:butt"/>
    <path d="M11.5 30c5.5-3 15.5-3 21 0M11.5 33.5c5.5-3 15.5-3 21 0M11.5 37c5.5-3 15.5-3 21 0" style="fill:none;stroke:#fff"/>
  </g>
</svg>
