<svg xmlns="http://www.w3.org/2000/svg" viewBox="0 0 45 45">
  <g style="fill:#000;stroke:#000;stroke-width:1.5;stroke-linecap:round;stroke-linejoin:round">
    <path d="M22 10c10.5 1 16.5 8 16 29H15c0-9 10-6.5 8-21"/>
    <path d="M24 18c.38 5.12-5.4 7.12-11 7.5-3.17.17-4.43 1.13-2.5 4.5 2.6 4.5 10.5 9 9 12.5" style="fill:none;stroke:#fff"/>
    <path d="M9.5 25.5a.5.5 0 1 1-1 0 .5.5 0 0 1 1 0z" style="fill:#fff;stroke:#fff"/>
    <path d="M14.933 15.75a5 5 0 0 1-2.2 6.25 3.3 3.3 0 0 1-4.4-1.6 3.4 3.4 0 0 1 1.6-4.4 5 5 0 0 1 5-.25z"/>
    <path d="M9 39h27v-3H9v3z" style="stroke-linecap:butt"/>
  </g>
</svg>
